<?xml version="1.0" encoding="UTF-8" standalone="no"?>
<svg
   width="512"
   height="512"
   viewBox="0 0 512 512"
   fill="none"
   role="img"
   aria-label="Godot launcher"
   version="1.1"
   id="svg13"
   xmlns="http://www.w3.org/2000/svg">
  <defs
     id="defs4">
    <linearGradient
       id="bg"
       x1="256"
       y1="0"
       x2="256"
       y2="512"
       gradientUnits="userSpaceOnUse">
      <stop
         offset="0"
         stop-color="#1E293B"
         id="stop1" />
      <stop
         offset="1"
         stop-color="#0B1220"
         id="stop2" />
    </linearGradient>
    <linearGradient
       id="godot"
       x1="150"
       y1="150"
       x2="372"
       y2="372"
       gradientUnits="userSpaceOnUse">
      <stop
         offset="0"
         stop-color="#56B0E6"
         id="stop3" />
      <stop
         offset="1"
         stop-color="#478CBF"
         id="stop4" />
    </linearGradient>
  </defs>
  <rect
     width="512"
     height="512"
     rx="112"
     fill="url(#bg)"
     id="rect4" />
  <!-- body: full-width top, stepped narrower base -->
  <path
     d="M110 96 L402 96 L402 372 L366 372 L366 430 L146 430 L146 372 L110 372 Z"
     fill="url(#godot)"
     stroke="url(#godot)"
     stroke-width="12"
     stroke-linejoin="round"
     id="path4" />
  <!-- base shell -->
  <rect
     x="160"
     y="384"
     width="192"
     height="38"
     rx="8"
     fill="#5B9FCB"
     id="rect5" />
  <!-- ridge column -->
  <g
     fill="#2C608A"
     id="g11">
    <rect
       x="140"
       y="120"
       width="84"
       height="24"
       rx="8"
       id="rect6" />
    <rect
       x="140"
       y="160"
       width="84"
       height="24"
       rx="8"
       id="rect7" />
    <rect
       x="140"
       y="200"
       width="84"
       height="24"
       rx="8"
       id="rect8" />
    <rect
       x="140"
       y="240"
       width="84"
       height="24"
       rx="8"
       id="rect9" />
    <rect
       x="140"
       y="280"
       width="84"
       height="24"
       rx="8"
       id="rect10" />
    <rect
       x="140"
       y="320"
       width="84"
       height="24"
       rx="8"
       id="rect11" />
  </g>
  <!-- label -->
  <rect
     x="244"
     y="112"
     width="144"
     height="188"
     rx="20"
     fill="#21496B"
     id="rect12" />
  <!-- G monogram -->
  <path
     d="M350.4 181.9 A42 42 0 1 0 350.4 230.1"
     fill="none"
     stroke="#A3C5DE"
     stroke-width="18"
     stroke-linecap="round"
     id="path12" />
  <path
     d="M350 206 H320"
     stroke="#A3C5DE"
     stroke-width="18"
     stroke-linecap="round"
     id="path13" />
</svg>
